<svg xmlns="http://www.w3.org/2000/svg" xmlns:xlink="http://www.w3.org/1999/xlink" width="500" zoomAndPan="magnify" viewBox="0 0 375 374.999991" height="500" preserveAspectRatio="xMidYMid meet" version="1.0"><defs><g/><clipPath id="d48cc3e8d9"><path d="M 151.042969 111.605469 L 231.085938 111.605469 L 231.085938 263.394531 L 151.042969 263.394531 Z M 151.042969 111.605469 " clip-rule="nonzero"/></clipPath></defs><g clip-path="url(#d48cc3e8d9)"><path fill="#f14e4e" d="M 151.042969 111.605469 L 231.085938 111.605469 L 231.085938 263.253906 L 151.042969 263.253906 Z M 151.042969 111.605469 " fill-opacity="1" fill-rule="nonzero"/></g><g fill="#000000" fill-opacity="1"><g transform="translate(7.688363, 212.297134)"><g><path d="M 48.453125 0 L 39.625 0 L 39.625 -30.53125 L 39.75 -37.78125 L 39.515625 -37.78125 L 31.046875 0 L 21.796875 0 L 13.5625 -37.78125 L 13.34375 -37.78125 L 13.4375 -30.53125 L 13.4375 0 L 4.609375 0 L 4.609375 -45.203125 L 18.421875 -45.203125 L 26.5625 -9.5625 L 26.75 -9.5625 L 34.78125 -45.203125 L 48.453125 -45.203125 Z M 48.453125 0 "/></g></g></g><g fill="#000000" fill-opacity="1"><g transform="translate(60.758428, 212.297134)"><g><path d="M 13.125 -37.484375 L 4.296875 -37.484375 L 4.296875 -45.65625 L 13.125 -45.65625 Z M 13.125 -33.515625 L 13.125 0 L 4.296875 0 L 4.296875 -33.515625 Z M 13.125 -33.515625 "/></g></g></g><g fill="#000000" fill-opacity="1"><g transform="translate(78.19223, 212.297134)"><g><path d="M 12.796875 -7.25 L 30.34375 -7.25 L 30.34375 0 L 1.390625 0 L 1.390625 -6.859375 L 18.578125 -26.4375 L 2.578125 -26.4375 L 2.578125 -33.515625 L 29.734375 -33.515625 L 29.734375 -26.25 Z M 12.796875 -7.25 "/></g></g></g><g fill="#000000" fill-opacity="1"><g transform="translate(110.077325, 212.297134)"><g><path d="M 34.3125 0 L 25.890625 0 L 25.890625 -4.734375 L 25.765625 -4.734375 C 23.535156 -0.984375 20.132812 0.890625 15.5625 0.890625 C 12.007812 0.890625 9.21875 -0.148438 7.1875 -2.234375 C 5.164062 -4.328125 4.15625 -7.40625 4.15625 -11.46875 L 4.15625 -33.515625 L 12.96875 -33.515625 L 12.96875 -12.734375 C 12.96875 -10.597656 13.457031 -9.03125 14.4375 -8.03125 C 15.425781 -7.039062 16.84375 -6.546875 18.6875 -6.546875 C 20.675781 -6.546875 22.304688 -7.207031 23.578125 -8.53125 C 24.847656 -9.851562 25.484375 -11.734375 25.484375 -14.171875 L 25.484375 -33.515625 L 34.3125 -33.515625 Z M 34.3125 0 "/></g></g></g><g fill="#000000" fill-opacity="1"><g transform="translate(148.703701, 212.297134)"><g/></g></g><g fill="#000000" fill-opacity="1"><g transform="translate(165.614788, 212.297134)"><g/></g></g><g fill="#000000" fill-opacity="1"><g transform="translate(182.525875, 212.297134)"><g/></g></g><g fill="#000000" fill-opacity="1"><g transform="translate(199.436962, 212.297134)"><g/></g></g><g fill="#000000" fill-opacity="1"><g transform="translate(216.348048, 212.297134)"><g/></g></g><g fill="#000000" fill-opacity="1"><g transform="translate(233.261243, 212.297134)"><g><path d="M 48.453125 0 L 39.625 0 L 39.625 -30.53125 L 39.75 -37.78125 L 39.515625 -37.78125 L 31.046875 0 L 21.796875 0 L 13.5625 -37.78125 L 13.34375 -37.78125 L 13.4375 -30.53125 L 13.4375 0 L 4.609375 0 L 4.609375 -45.203125 L 18.421875 -45.203125 L 26.5625 -9.5625 L 26.75 -9.5625 L 34.78125 -45.203125 L 48.453125 -45.203125 Z M 48.453125 0 "/></g></g></g><g fill="#000000" fill-opacity="1"><g transform="translate(286.331308, 212.297134)"><g><path d="M 27.296875 -16.75 C 27.296875 -19.945312 26.632812 -22.445312 25.3125 -24.25 C 24 -26.0625 22.007812 -26.96875 19.34375 -26.96875 C 16.863281 -26.96875 14.914062 -26.117188 13.5 -24.421875 C 12.082031 -22.734375 11.375 -20.175781 11.375 -16.75 C 11.375 -13.394531 12.0625 -10.851562 13.4375 -9.125 C 14.8125 -7.40625 16.78125 -6.546875 19.34375 -6.546875 C 21.988281 -6.546875 23.972656 -7.4375 25.296875 -9.21875 C 26.628906 -11.007812 27.296875 -13.519531 27.296875 -16.75 Z M 36.375 -16.75 C 36.375 -11.28125 34.800781 -6.972656 31.65625 -3.828125 C 28.507812 -0.679688 24.40625 0.890625 19.34375 0.890625 C 14.363281 0.890625 10.28125 -0.671875 7.09375 -3.796875 C 3.90625 -6.921875 2.3125 -11.238281 2.3125 -16.75 C 2.3125 -22.3125 3.90625 -26.640625 7.09375 -29.734375 C 10.28125 -32.828125 14.363281 -34.375 19.34375 -34.375 C 24.445312 -34.375 28.5625 -32.789062 31.6875 -29.625 C 34.8125 -26.457031 36.375 -22.164062 36.375 -16.75 Z M 36.375 -16.75 "/></g></g></g><g fill="#000000" fill-opacity="1"><g transform="translate(325.011576, 212.297134)"><g><path d="M 4.296875 -33.515625 L 12.765625 -33.515625 L 12.765625 -27.703125 L 12.875 -27.703125 C 13.90625 -29.898438 15.144531 -31.5625 16.59375 -32.6875 C 18.050781 -33.8125 19.878906 -34.375 22.078125 -34.375 C 22.648438 -34.375 23.210938 -34.332031 23.765625 -34.25 L 23.765625 -25.296875 C 23.359375 -25.378906 22.519531 -25.421875 21.25 -25.421875 C 18.5 -25.421875 16.457031 -24.757812 15.125 -23.4375 C 13.789062 -22.125 13.125 -20.125 13.125 -17.4375 L 13.125 0 L 4.296875 0 Z M 4.296875 -33.515625 "/></g></g></g><g fill="#000000" fill-opacity="1"><g transform="translate(349.8555, 212.297134)"><g><path d="M 13.125 -37.484375 L 4.296875 -37.484375 L 4.296875 -45.65625 L 13.125 -45.65625 Z M 13.125 -33.515625 L 13.125 0 L 4.296875 0 L 4.296875 -33.515625 Z M 13.125 -33.515625 "/></g></g></g><g fill="#ffffff" fill-opacity="1"><g transform="translate(159.55246, 178.132182)"><g><path d="M 21.03125 -38.222656 L 19.648438 -37.972656 L 3.777344 -37.972656 L 3.777344 -30.414062 L 16.941406 -30.414062 C 14.167969 -19.394531 8.753906 -10.769531 1.511719 -5.855469 C 3.335938 -4.785156 6.296875 -1.828125 7.558594 -0.0625 C 16.371094 -6.675781 23.175781 -19.394531 25.945312 -36.398438 Z M 50.316406 -42.316406 C 47.480469 -38.414062 43.136719 -33.628906 39.167969 -29.847656 C 37.847656 -32.492188 36.714844 -35.140625 35.707031 -37.972656 L 35.707031 -53.339844 L 27.707031 -53.339844 L 27.707031 -4.15625 C 27.707031 -3.085938 27.332031 -2.707031 26.257812 -2.707031 C 25.0625 -2.707031 21.726562 -2.707031 18.261719 -2.832031 C 19.394531 -0.566406 20.71875 3.210938 21.03125 5.542969 C 26.132812 5.542969 29.914062 5.164062 32.367188 3.839844 C 34.886719 2.457031 35.707031 0.25 35.707031 -4.09375 L 35.707031 -22.167969 C 40.617188 -12.785156 47.292969 -5.101562 56.171875 -0.378906 C 57.429688 -2.582031 59.949219 -5.730469 61.777344 -7.367188 C 53.84375 -10.832031 47.417969 -16.75 42.632812 -23.992188 C 47.105469 -27.582031 52.582031 -32.808594 57.242188 -37.46875 Z M 50.316406 -42.316406 "/></g></g></g><g fill="#ffffff" fill-opacity="1"><g transform="translate(159.55246, 244.257914)"><g><path d="M 27.644531 -25.125 L 35.140625 -25.125 L 35.140625 -38.414062 C 40.679688 -32.621094 48.238281 -27.960938 56.109375 -25.316406 C 57.179688 -27.203125 59.320312 -30.039062 60.894531 -31.488281 C 54.03125 -33.25 47.167969 -36.398438 42.066406 -40.300781 L 56.800781 -40.300781 L 56.800781 -46.914062 L 35.140625 -46.914062 L 35.140625 -53.402344 L 27.644531 -53.402344 L 27.644531 -46.914062 L 6.171875 -46.914062 L 6.171875 -40.300781 L 20.152344 -40.300781 C 15.300781 -36.210938 8.691406 -32.871094 1.953125 -30.917969 C 3.527344 -29.597656 5.605469 -26.890625 6.550781 -25.0625 C 14.546875 -27.835938 22.167969 -32.621094 27.644531 -38.539062 Z M 30.605469 -8.375 C 29.03125 -9.507812 23.109375 -13.160156 20.59375 -14.609375 L 20.59375 -14.796875 L 29.535156 -14.796875 L 29.535156 -21.347656 L 20.59375 -21.347656 L 20.59375 -27.457031 L 13.539062 -27.457031 L 13.539062 -21.347656 L 3.839844 -21.347656 L 3.839844 -14.796875 L 13.035156 -14.796875 C 10.265625 -11.019531 5.917969 -7.242188 1.828125 -5.101562 C 2.898438 -3.210938 4.21875 -0.1875 4.785156 1.761719 C 7.933594 -0.0625 10.894531 -3.023438 13.539062 -6.296875 L 13.539062 4.976562 L 20.59375 4.976562 L 20.59375 -8.058594 C 22.292969 -6.738281 23.867188 -5.542969 24.8125 -4.722656 Z M 59.320312 -14.609375 L 59.320312 -21.097656 L 47.859375 -21.097656 L 47.859375 -27.457031 L 40.742188 -27.457031 L 40.742188 -21.097656 L 31.675781 -21.097656 L 31.675781 -14.609375 L 39.609375 -14.609375 C 36.210938 -9.886719 30.480469 -5.351562 24.9375 -3.085938 C 26.511719 -1.828125 28.589844 0.691406 29.597656 2.265625 C 33.5 0.125 37.46875 -3.148438 40.742188 -6.925781 L 40.742188 5.542969 L 47.859375 5.542969 L 47.859375 -6.925781 C 50.566406 -3.402344 53.589844 -0.0625 56.421875 2.078125 C 57.621094 0.25 60.011719 -2.394531 61.714844 -3.839844 C 57.304688 -6.109375 52.140625 -10.453125 48.804688 -14.609375 Z M 59.320312 -14.609375 "/></g></g></g></svg>